<?xml version="1.0" standalone="no"?>
<!DOCTYPE svg PUBLIC "-//W3C//DTD SVG 20010904//EN"
 "http://www.w3.org/TR/2001/REC-SVG-20010904/DTD/svg10.dtd">
<svg version="1.0" xmlns="http://www.w3.org/2000/svg"
 width="256.000000pt" height="256.000000pt" viewBox="0 0 256.000000 256.000000"
 preserveAspectRatio="xMidYMid meet">

<g transform="translate(0.000000,256.000000) scale(0.100000,-0.100000)"
fill="#000000" stroke="none">
<path d="M491 2223 c-26 -9 -65 -36 -92 -63 -82 -82 -79 -48 -79 -894 0 -724
1 -742 21 -786 27 -60 74 -107 134 -136 l50 -24 755 0 755 0 50 24 c60 29 107
76 134 136 20 44 21 62 21 786 0 845 3 812 -79 894 -84 84 -43 80 -885 79
-646 0 -747 -3 -785 -16z m473 -490 c3 -38 7 -77 8 -88 1 -10 11 -28 21 -38
17 -17 39 -20 156 -24 85 -4 139 -10 143 -17 4 -6 49 -110 99 -231 114 -275
103 -255 135 -246 23 6 38 35 128 246 l101 240 92 3 93 3 -35 -80 c-82 -192
-299 -677 -308 -688 -6 -9 -37 -13 -87 -13 l-77 0 -56 128 c-30 70 -88 204
-128 297 -41 95 -84 180 -98 193 -21 19 -34 22 -88 21 -35 -1 -63 -5 -63 -10
0 -4 -9 -10 -19 -14 -18 -5 -19 -17 -18 -198 3 -264 15 -287 157 -287 l70 0 0
-64 0 -65 -57 -11 c-116 -24 -222 4 -280 75 -49 59 -55 93 -60 325 -6 245 -5
243 -86 252 -27 3 -50 7 -52 9 -4 4 -8 71 -6 107 1 20 6 22 49 22 37 0 52 5
67 23 19 21 22 34 24 118 1 35 2 36 69 56 102 31 99 33 106 -44z"/>
<path d="M1520 1070 c0 -5 5 -10 10 -10 6 0 10 5 10 10 0 6 -4 10 -10 10 -5 0
-10 -4 -10 -10z"/>
<path d="M2388 1825 c-4 -4 -7 -298 -8 -652 0 -389 -4 -663 -10 -690 -33 -145
-171 -278 -298 -288 -20 -1 -28 -1 -17 2 54 12 113 37 145 60 56 41 99 95 100
124 0 15 7 29 15 33 8 3 15 11 15 18 0 9 -3 9 -10 -2 -9 -13 -11 -13 -20 0 -9
13 -14 7 -11 -12 0 -4 -8 -12 -19 -18 -12 -7 -17 -17 -13 -28 3 -10 -6 -5 -21
12 -30 34 -35 47 -7 22 12 -11 21 -14 26 -7 3 6 1 11 -5 11 -6 0 -8 5 -4 12 4
7 3 8 -4 4 -7 -4 -12 -2 -12 5 0 8 -4 8 -15 -1 -9 -7 -13 -15 -10 -18 3 -3 -4
-12 -15 -19 -11 -8 -17 -19 -14 -25 5 -7 2 -8 -5 -3 -7 4 -22 -1 -34 -13 -12
-10 -42 -27 -67 -36 -41 -15 -116 -16 -805 -14 l-760 3 -40 23 c-22 12 -51 30
-65 40 -23 16 -24 16 -17 -3 7 -19 6 -19 -7 -2 -8 10 -17 18 -20 18 -20 -3
-26 0 -21 9 3 5 12 7 20 3 19 -7 19 2 -2 33 -11 18 -18 22 -24 13 -9 -15 -39
-21 -39 -8 0 5 5 9 12 9 6 0 9 2 6 5 -3 3 -16 1 -29 -4 -13 -5 -18 -10 -11
-10 6 -1 12 -6 12 -12 0 -5 -4 -8 -9 -4 -6 3 -15 -3 -20 -13 -8 -15 -6 -23 9
-37 11 -10 20 -23 20 -28 0 -17 71 -77 83 -70 5 3 7 2 4 -4 -9 -14 46 -43 116
-59 57 -13 58 -14 16 -10 -101 7 -220 91 -270 188 -48 94 -49 104 -49 770 0
418 -3 629 -10 633 -7 4 -10 -208 -8 -667 l3 -673 28 -57 c43 -88 107 -152
195 -195 l76 -38 816 0 816 0 76 38 c88 43 152 107 195 195 l28 57 3 535 c3
608 0 855 -10 845z m-2058 -1430 c-7 -13 -17 -22 -21 -19 -5 3 -1 16 7 30 21
31 32 23 14 -11z m-20 15 c0 -5 -5 -10 -11 -10 -5 0 -7 5 -4 10 3 6 8 10 11
10 2 0 4 -4 4 -10z m-30 -14 c0 -2 -7 -7 -16 -10 -8 -3 -12 -2 -9 4 6 10 25
14 25 6z m10 -26 c0 -5 -5 -10 -11 -10 -5 0 -7 5 -4 10 3 6 8 10 11 10 2 0 4
-4 4 -10z m1925 1 c3 -5 2 -12 -3 -15 -5 -3 -9 1 -9 9 0 17 3 19 12 6z m-198
-185 c4 -3 -326 -5 -733 -4 -406 0 -719 4 -694 7 59 8 1419 5 1427 -3z"/>
<path d="M2256 438 c3 -5 10 -6 15 -3 13 9 11 12 -6 12 -8 0 -12 -4 -9 -9z"/>
</g>
</svg>
